<?xml version="1.0" standalone="no"?>
<!DOCTYPE svg PUBLIC "-//W3C//DTD SVG 20010904//EN"
 "http://www.w3.org/TR/2001/REC-SVG-20010904/DTD/svg10.dtd">
<svg version="1.0" xmlns="http://www.w3.org/2000/svg"
 width="1024.000000pt" height="1024.000000pt" viewBox="0 0 1024.000000 1024.000000"
 preserveAspectRatio="xMidYMid meet">

<g transform="translate(0.000000,1024.000000) scale(0.100000,-0.100000)"
fill="#000000" stroke="none">
<path d="M4965 9774 c-621 -29 -1152 -147 -1696 -375 -759 -320 -1470 -909
-1946 -1614 -109 -161 -192 -306 -302 -525 -249 -500 -386 -964 -458 -1550
-28 -228 -25 -800 5 -1050 27 -215 36 -266 102 -535 130 -533 333 -983 658
-1460 183 -270 275 -380 536 -640 404 -404 757 -658 1251 -900 480 -235 957
-375 1510 -441 187 -23 788 -26 985 -6 588 60 1129 222 1631 488 348 184 592
350 885 601 167 142 471 454 593 607 544 685 873 1473 977 2336 25 208 30 703
10 915 -57 596 -189 1067 -446 1590 -399 812 -976 1440 -1761 1916 -419 254
-950 457 -1444 553 -330 64 -806 103 -1090 90z m610 -239 c770 -83 1427 -321
2045 -742 502 -342 945 -808 1257 -1323 319 -525 523 -1120 599 -1745 27 -215
27 -787 1 -995 -51 -407 -132 -731 -274 -1090 -354 -899 -990 -1649 -1823
-2148 -533 -320 -1096 -512 -1725 -589 -215 -26 -795 -26 -1010 0 -995 121
-1879 538 -2576 1215 -534 518 -917 1144 -1128 1842 -117 392 -169 725 -178
1155 -12 549 53 988 217 1475 214 639 546 1188 1000 1654 753 774 1732 1224
2840 1305 167 13 581 5 755 -14z"/>
<path d="M4725 9070 c-6 -10 7 -438 21 -671 l6 -107 57 -4 c31 -3 139 -3 241
-1 153 4 187 8 198 21 7 9 12 46 12 89 l0 72 -152 3 -153 3 -5 287 c-3 157 -7
288 -10 291 -30 27 -201 40 -215 17z"/>
<path d="M5680 9026 c-276 -77 -399 -400 -240 -631 63 -92 204 -172 319 -182
174 -15 346 88 422 251 29 62 31 72 27 163 -3 85 -7 107 -35 165 -91 192 -295
289 -493 234z m226 -218 c115 -78 126 -225 25 -341 -65 -73 -174 -87 -255 -30
-62 43 -86 93 -86 178 0 142 75 224 206 225 53 0 68 -4 110 -32z"/>
<path d="M4286 8989 c-54 -15 -101 -30 -103 -33 -3 -3 2 -24 11 -48 19 -49
106 -361 102 -365 -1 -2 -85 76 -186 172 -101 96 -186 175 -189 175 -3 0 -53
-15 -111 -34 -68 -22 -106 -39 -108 -49 -2 -8 17 -91 42 -184 25 -92 66 -248
92 -345 26 -97 50 -182 54 -189 6 -9 30 -6 96 11 49 13 90 24 92 25 1 1 -20
85 -47 186 -82 302 -95 294 128 79 106 -102 200 -189 208 -193 17 -10 213 41
213 55 0 5 -15 71 -34 146 -19 75 -55 227 -81 337 -51 220 -66 274 -74 279 -3
2 -50 -9 -105 -25z"/>
<path d="M6545 8820 c-9 -10 -58 -119 -110 -242 -51 -123 -116 -274 -144 -337
-28 -62 -49 -116 -46 -121 3 -4 17 -11 32 -15 16 -3 45 -17 65 -31 71 -46 78
-40 143 109 32 72 62 136 66 140 4 5 10 -11 14 -35 4 -23 26 -104 50 -178 24
-74 45 -143 46 -153 5 -26 196 -114 212 -98 8 8 -7 64 -52 203 -91 280 -85
258 -69 274 8 8 108 50 222 94 201 76 224 86 215 93 -31 24 -159 99 -175 103
-23 6 -225 -71 -336 -127 -59 -30 -60 -30 -52 -7 3 13 31 74 60 137 38 81 51
118 44 126 -6 7 -32 20 -58 30 -26 10 -61 25 -79 35 -30 18 -32 18 -48 0z"/>
<path d="M3033 8491 c-56 -38 -82 -62 -82 -76 -1 -11 10 -78 23 -150 13 -71
41 -254 62 -405 21 -151 39 -276 40 -278 5 -8 167 114 173 131 4 11 4 39 0 61
-19 98 -18 99 84 162 50 31 100 63 109 72 16 14 22 11 72 -36 30 -29 62 -52
71 -52 28 0 174 79 185 101 17 31 8 42 -77 100 -91 61 -210 149 -413 304 -80
61 -149 114 -155 117 -5 3 -47 -20 -92 -51z m236 -315 c30 -31 53 -57 50 -59
-16 -14 -121 -68 -124 -65 -5 4 -35 184 -35 206 0 18 42 -13 109 -82z"/>
<path d="M2552 8125 c-45 -36 -82 -67 -82 -69 0 -1 29 -63 64 -137 74 -156
149 -339 143 -346 -7 -6 -101 43 -277 146 -90 53 -166 91 -182 91 -20 0 -43
-18 -97 -77 -40 -43 -70 -84 -69 -91 2 -8 46 -34 99 -57 53 -23 215 -97 361
-164 145 -66 273 -121 284 -121 12 0 47 30 88 76 l69 76 -21 36 c-11 20 -42
89 -67 152 -26 63 -67 161 -91 217 -23 56 -57 148 -75 205 -30 98 -44 128 -58
128 -4 0 -44 -29 -89 -65z"/>
<path d="M7580 8146 c-20 -13 -99 -58 -175 -99 -364 -197 -450 -247 -453 -261
-2 -8 9 -21 26 -30 15 -8 35 -22 42 -31 19 -23 84 -55 111 -55 12 0 37 11 56
26 19 14 38 22 46 18 19 -12 186 -154 192 -164 3 -5 -6 -41 -20 -81 -17 -51
-22 -76 -15 -89 5 -10 39 -41 74 -69 36 -28 67 -57 69 -64 16 -41 68 98 190
508 84 282 84 281 61 306 -33 36 -135 109 -152 108 -10 0 -33 -11 -52 -23z
m-41 -327 c-18 -49 -36 -89 -39 -89 -3 0 -30 22 -60 48 l-53 48 49 31 c77 48
129 72 133 61 2 -5 -12 -50 -30 -99z"/>
<path d="M7982 7870 c-98 -60 -94 -196 8 -247 54 -28 94 -29 139 -5 43 23 71
74 71 128 0 107 -127 180 -218 124z m122 -20 c64 -24 85 -133 36 -185 -46 -49
-140 -41 -173 14 -19 32 -23 102 -7 131 22 42 91 61 144 40z"/>
<path d="M7990 7766 c0 -35 -3 -71 -6 -80 -4 -12 0 -16 15 -16 17 0 21 6 21
30 0 23 5 30 19 30 11 0 23 -12 31 -30 7 -16 19 -30 26 -30 17 0 17 2 2 35
-10 22 -8 28 11 46 42 40 5 79 -76 79 l-43 0 0 -64z m95 31 c25 -19 10 -37
-31 -37 -30 0 -34 3 -34 25 0 19 5 25 23 25 13 0 31 -6 42 -13z"/>
<path d="M5003 7765 c-80 -22 -120 -41 -190 -91 -139 -99 -233 -279 -233 -445
0 -116 46 -265 122 -394 90 -153 370 -495 412 -503 34 -7 65 21 174 151 156
187 226 288 287 412 67 137 87 213 87 333 -1 159 -51 281 -162 392 -134 136
-325 191 -497 145z m233 -289 c85 -40 137 -125 138 -226 1 -142 -106 -252
-244 -252 -66 0 -145 30 -183 70 -71 74 -93 207 -48 292 32 63 58 89 116 116
68 32 152 32 221 0z"/>
<path d="M4455 6131 c-73 -33 -115 -102 -115 -185 l0 -45 -77 -3 -78 -3 -3
-182 c-2 -174 -2 -183 18 -193 12 -7 32 -7 52 -2 l33 8 3 157 3 157 24 0 25 0
0 -500 c0 -564 -2 -548 74 -601 28 -20 47 -42 50 -58 3 -14 7 -43 11 -63 9
-59 51 -83 147 -83 66 1 80 4 102 24 13 12 29 42 35 65 6 24 17 48 24 55 11 8
107 11 347 9 l333 -3 14 -47 c8 -28 25 -56 44 -72 27 -23 39 -26 111 -26 74 0
82 2 107 28 20 20 30 42 35 81 6 46 13 59 48 90 85 76 79 31 79 563 -1 260 3
487 7 503 6 20 15 30 28 30 18 0 19 -10 22 -154 1 -85 7 -160 12 -166 13 -16
72 -7 88 13 13 17 18 314 6 346 -4 11 -19 16 -43 16 -20 0 -52 3 -72 6 -35 6
-35 7 -46 71 -14 78 -48 127 -113 161 l-44 22 -626 0 c-586 0 -627 -2 -665
-19z m1290 -466 l0 -230 -617 -3 -618 -2 0 235 0 235 618 -2 617 -3 0 -230z
m-1038 -560 c33 -33 35 -39 31 -85 -6 -59 -27 -86 -78 -101 -72 -22 -150 41
-150 120 0 24 9 42 34 67 29 29 41 34 81 34 40 0 52 -5 82 -35z m989 1 c30
-30 34 -40 34 -84 0 -43 -4 -54 -30 -75 -55 -47 -112 -46 -162 1 -76 71 -25
192 79 192 38 0 50 -5 79 -34z"/>
<path d="M4112 4196 c-95 -31 -151 -105 -152 -200 0 -106 63 -171 194 -201 81
-19 106 -36 106 -76 0 -58 -91 -67 -195 -20 l-65 30 -33 -62 c-17 -34 -33 -65
-35 -68 -5 -12 91 -60 148 -75 69 -18 124 -18 186 1 130 39 197 167 145 281
-26 56 -71 87 -172 118 -47 14 -92 34 -101 43 -27 32 -29 52 -7 74 18 18 30
21 73 16 28 -3 73 -15 98 -28 55 -26 62 -23 101 50 l27 49 -36 21 c-94 55
-201 73 -282 47z"/>
<path d="M2685 4186 c-2 -6 -6 -160 -10 -343 l-6 -331 68 -8 c94 -10 361 2
379 17 11 9 14 30 12 78 l-3 65 -137 -3 -138 -3 0 249 c0 184 -3 253 -12 265
-15 19 -148 31 -153 14z"/>
<path d="M3478 4188 c-9 -7 -44 -80 -78 -163 -87 -208 -197 -479 -205 -504 -6
-20 -3 -21 77 -21 46 0 89 4 96 9 7 4 23 37 35 72 l22 64 123 0 c139 0 132 4
160 -87 16 -56 18 -58 52 -58 43 1 109 15 121 27 12 12 -219 621 -249 656 -18
21 -129 24 -154 5z m105 -305 l35 -93 -75 0 c-68 0 -74 2 -68 18 8 19 53 139
61 161 7 20 8 16 47 -86z"/>
<path d="M4610 4191 l-75 -6 0 -65 0 -65 87 0 88 0 2 -260 3 -260 75 0 75 0 6
75 c4 41 7 160 8 263 1 132 4 186 12 181 6 -3 49 -3 95 1 l84 7 0 63 0 62 -46
7 c-54 7 -303 5 -414 -3z"/>
<path d="M5413 4193 c-9 -6 -12 -95 -14 -333 l-2 -325 79 0 c75 0 78 1 85 25
4 14 8 113 9 220 l1 195 53 -160 c29 -88 65 -188 80 -222 l29 -63 47 0 48 0
34 98 c19 53 52 153 74 222 l39 125 5 -220 5 -220 80 0 80 0 3 328 2 328 -116
-3 -116 -3 -38 -95 c-20 -52 -50 -130 -65 -173 -15 -43 -31 -75 -36 -70 -8 9
-85 206 -113 291 l-18 52 -52 0 c-29 0 -80 2 -112 6 -32 3 -64 1 -71 -3z"/>
<path d="M6333 4192 c-8 -5 -13 -99 -18 -333 l-5 -326 70 -7 c104 -9 108 -5
104 101 -2 48 -7 194 -10 325 -6 230 -7 236 -28 242 -30 8 -99 7 -113 -2z"/>
<path d="M6648 3895 c-1 -168 -2 -317 -2 -332 l-1 -28 200 -5 c110 -3 206 -1
213 4 7 5 12 33 12 72 l0 64 -130 0 -130 0 0 265 0 265 -80 0 -80 0 -2 -305z"/>
<path d="M7175 4188 c-3 -7 -4 -157 -3 -333 l3 -320 55 -6 c30 -3 133 -4 228
-1 l172 5 0 68 c0 48 -4 69 -12 70 -7 1 -75 0 -151 -1 l-138 -2 3 63 3 64 129
2 c96 1 131 5 136 15 4 7 5 39 3 71 l-5 57 -135 0 -135 0 4 56 4 56 142 -1
143 -2 -3 73 -3 73 -218 3 c-173 3 -218 1 -222 -10z"/>
<path d="M3432 3272 c-124 -44 -175 -162 -119 -272 26 -52 65 -80 180 -130 66
-28 83 -40 92 -64 8 -24 6 -31 -14 -47 -41 -34 -108 -19 -203 44 l-26 18 -41
-60 c-23 -33 -41 -64 -41 -69 0 -17 93 -70 155 -88 51 -14 69 -15 123 -5 135
25 210 90 220 191 3 37 -1 60 -18 94 -29 61 -62 87 -170 132 -102 42 -135 73
-108 101 9 8 37 18 62 20 40 5 54 1 95 -25 l49 -30 20 21 c10 12 29 37 41 55
23 32 23 34 5 54 -61 66 -203 95 -302 60z"/>
<path d="M4070 3200 c-23 -45 -60 -134 -84 -198 -24 -65 -68 -177 -96 -250
-29 -73 -50 -135 -47 -138 3 -3 33 -8 66 -11 78 -7 105 9 123 74 l14 48 130 3
131 3 26 -61 26 -60 76 0 c52 0 77 4 81 13 2 7 -31 98 -75 203 -44 105 -103
250 -131 322 l-51 132 -75 0 -74 0 -40 -80z m142 -222 l37 -93 -71 -3 c-39 -2
-72 -1 -75 2 -6 5 59 186 67 186 3 0 22 -42 42 -92z"/>
<path d="M4634 3271 c-2 -2 -4 -152 -4 -333 l0 -328 80 0 80 0 0 125 0 124
123 3 122 3 5 50 c9 89 15 85 -125 85 l-123 0 -7 55 c-3 30 -4 59 0 65 4 6 60
10 140 10 153 0 149 -3 143 94 l-3 48 -213 2 c-118 0 -216 -1 -218 -3z"/>
<path d="M5200 2951 l0 -330 225 -3 225 -3 1 45 c0 25 2 53 4 62 6 32 -19 37
-158 35 l-137 -2 0 63 0 62 130 0 130 0 0 70 0 70 -130 0 -130 0 0 58 0 59
140 -5 141 -4 -3 73 -3 74 -217 3 -218 2 0 -329z"/>
<path d="M6375 3270 c-7 -11 24 -66 149 -270 l71 -115 3 -132 4 -133 73 0 c71
0 73 1 78 27 3 15 2 70 0 124 l-6 97 80 134 c133 223 156 267 140 274 -8 3
-47 4 -88 2 l-74 -3 -60 -122 c-33 -68 -62 -123 -65 -123 -3 0 -33 56 -68 125
l-62 125 -84 0 c-48 0 -88 -5 -91 -10z"/>
<path d="M5774 3256 c-3 -7 -4 -38 -2 -67 l3 -54 80 0 80 0 5 -255 5 -255 82
-3 83 -3 2 257 3 256 90 2 90 1 3 68 3 67 -261 0 c-211 0 -262 -3 -266 -14z"/>
<path d="M2609 2393 c-14 -37 -79 -273 -79 -288 0 -7 19 -25 41 -40 l41 -27
42 40 c22 21 58 52 80 68 l39 28 -8 -24 c-4 -14 -20 -56 -36 -95 l-29 -70 26
-22 c65 -52 60 -53 192 46 66 49 123 94 126 100 3 5 -13 23 -36 40 l-42 31
-46 -43 c-25 -23 -60 -56 -78 -72 l-33 -29 16 44 c8 24 22 71 31 103 l15 60
-28 23 c-15 13 -33 23 -39 24 -6 0 -46 -27 -88 -60 -42 -33 -76 -59 -76 -56 0
2 11 32 24 67 42 113 42 120 -4 152 l-40 28 -11 -28z"/>
<path d="M7554 2401 c-17 -11 -40 -37 -50 -59 -17 -36 -22 -39 -56 -38 -26 0
-44 -6 -62 -23 -26 -24 -49 -75 -39 -85 4 -3 2 -6 -4 -6 -6 0 -13 7 -17 15 -8
22 -22 19 -58 -14 l-32 -28 93 -126 93 -126 34 27 c19 15 34 33 34 40 0 7 -23
47 -51 88 -52 78 -60 117 -28 137 27 17 43 3 108 -93 l63 -92 34 33 c19 18 34
37 34 41 0 5 -25 46 -57 93 -51 77 -55 88 -44 111 9 20 17 25 39 22 21 -2 39
-20 85 -88 32 -47 61 -86 65 -88 4 -1 23 13 41 32 l33 34 -42 62 c-23 34 -61
81 -84 106 -48 50 -81 56 -132 25z"/>
<path d="M3085 2078 c-4 -11 -18 -111 -41 -276 l-5 -42 46 -20 c26 -11 48 -20
50 -20 2 0 32 35 67 77 36 44 64 71 65 63 2 -8 -5 -55 -15 -103 -20 -96 -20
-95 41 -121 l39 -16 73 78 c85 91 145 161 145 171 0 4 -17 13 -37 21 -21 8
-41 16 -45 18 -4 2 -37 -36 -74 -85 -45 -59 -65 -79 -60 -61 12 53 27 180 22
193 -2 7 -21 18 -42 25 l-36 12 -68 -73 -68 -74 19 90 c10 50 18 95 19 101 0
9 -69 54 -84 54 -4 0 -9 -6 -11 -12z"/>
<path d="M7049 2067 c-60 -32 -89 -77 -89 -139 0 -104 70 -180 165 -180 72 0
129 42 160 116 21 50 12 103 -25 154 -52 72 -132 90 -211 49z m106 -90 c60
-60 54 -147 -10 -147 -35 0 -95 77 -95 121 0 14 47 59 61 59 6 0 26 -15 44
-33z"/>
<path d="M6775 1917 c-91 -43 -130 -116 -106 -198 16 -54 65 -106 112 -121 50
-14 127 7 177 49 l32 28 -26 33 c-26 33 -26 33 -48 14 -57 -52 -104 -52 -136
1 -26 42 -25 70 4 103 17 20 36 29 68 33 l46 6 -12 35 c-14 45 -43 49 -111 17z"/>
<path d="M3580 1685 l0 -165 28 -11 c72 -28 73 -27 131 65 29 47 54 86 55 86
1 0 2 -48 1 -107 l0 -106 54 -15 c39 -11 56 -12 58 -5 3 7 38 65 80 130 41 65
78 123 80 130 4 10 -52 33 -82 33 -6 0 -33 -38 -60 -85 -27 -47 -50 -84 -51
-82 -2 1 -4 46 -5 100 -2 105 -3 107 -61 121 -24 5 -30 -1 -83 -82 l-57 -87 7
106 7 105 -44 17 c-24 9 -47 17 -51 17 -4 0 -7 -74 -7 -165z"/>
<path d="M5818 1766 c-20 -6 -39 -13 -41 -16 -3 -3 12 -102 32 -220 l38 -215
44 3 c24 2 47 6 51 10 4 4 1 39 -7 77 -7 39 -12 71 -10 73 1 2 28 -27 60 -62
62 -71 59 -70 143 -44 l32 10 -75 70 c-41 38 -75 74 -75 79 0 6 16 35 35 65
19 30 35 58 35 63 0 4 -23 4 -51 -2 -47 -9 -55 -15 -82 -59 -16 -26 -31 -48
-32 -48 -2 0 -10 44 -20 98 -20 115 -24 132 -33 131 -4 -1 -24 -6 -44 -13z"/>
<path d="M6224 1716 c-63 -29 -68 -37 -53 -80 l12 -34 32 24 c40 30 90 41 110
24 13 -11 5 -18 -54 -46 -83 -41 -110 -81 -91 -139 6 -19 21 -42 33 -50 43
-30 133 -10 157 36 11 19 12 19 24 4 11 -15 17 -16 49 -6 31 10 36 16 32 34
-3 12 -12 53 -21 91 -18 81 -46 141 -73 156 -33 17 -103 11 -157 -14z m125
-205 c-11 -19 -23 -26 -44 -26 -45 0 -42 41 5 73 l35 23 9 -21 c7 -16 6 -30
-5 -49z"/>
<path d="M5296 1722 l-49 -3 7 -60 c3 -33 9 -123 12 -202 4 -78 7 -153 8 -167
1 -22 6 -25 41 -28 71 -4 70 -10 56 234 -6 120 -15 221 -19 224 -4 3 -29 4
-56 2z"/>
<path d="M4182 1644 c60 -225 84 -301 97 -311 8 -7 35 -13 61 -13 l45 0 68
143 c37 78 67 145 67 150 0 4 -24 7 -53 7 l-53 0 -39 -90 -39 -89 -23 97 c-13
53 -27 100 -31 104 -4 4 -30 11 -56 14 -45 7 -49 6 -44 -12z"/>
<path d="M5515 1596 c-41 -18 -82 -67 -96 -116 -21 -71 19 -163 85 -194 118
-56 256 39 242 168 -13 120 -125 188 -231 142z m91 -74 c38 -25 46 -120 14
-152 -43 -43 -90 -11 -98 69 -3 40 -1 52 17 70 21 21 47 27 67 13z"/>
<path d="M6536 1588 c-22 -31 -20 -52 7 -84 19 -22 29 -26 50 -20 40 10 60 46
47 82 -13 34 -26 44 -62 44 -17 0 -33 -9 -42 -22z"/>
<path d="M4567 1593 c-16 -4 -18 -11 -12 -41 4 -21 8 -38 9 -39 1 -1 18 3 38
9 43 13 104 3 112 -18 7 -19 -3 -22 -88 -26 -60 -4 -72 -8 -92 -32 -74 -85 40
-206 144 -152 26 14 32 14 32 3 0 -8 14 -17 31 -21 68 -13 66 -17 73 114 8
138 1 165 -54 192 -34 17 -145 23 -193 11z m143 -186 c0 -7 -7 -23 -16 -35
-22 -32 -78 -28 -82 7 -2 13 2 28 10 32 21 14 88 11 88 -4z"/>
<path d="M5056 1579 c-15 -4 -37 -16 -47 -25 -18 -16 -19 -16 -19 4 0 20 -5
22 -50 22 l-50 0 0 -155 0 -155 50 0 50 0 0 93 c0 111 14 140 63 135 l32 -3 5
-115 5 -115 29 -3 c15 -2 39 -1 52 2 23 6 24 9 24 117 0 116 -13 170 -47 187
-31 16 -67 20 -97 11z"/>
<path d="M4020 1480 c-26 -26 -26 -81 -2 -103 42 -38 102 -7 102 53 0 31 -8
44 -37 59 -30 15 -40 14 -63 -9z"/>
</g>
</svg>
